<?xml version="1.0" encoding="UTF-8" standalone="no"?>
<svg
   viewBox="0 0 512 512"
   version="1.1"
   id="svg1" fill="#ffffff"
   xml:space="preserve"
   xmlns="http://www.w3.org/2000/svg"
   xmlns:svg="http://www.w3.org/2000/svg"><defs
     id="defs1"><clipPath
       clipPathUnits="userSpaceOnUse"
       id="clipPath3"><g
         id="use3" /></clipPath><clipPath
       clipPathUnits="userSpaceOnUse"
       id="clipPath4"><path
         d="m 259.23747,360.35666 19.596,-55.9488 c 7.51551,-21.43313 27.72389,-35.7961 50.43743,-35.7961 h 100.87485 c 22.71355,0 25.72872,1.20389 25.72872,1.20389 l 0.30953,190.07357 c -5.93375,0.33038 -219.92479,8.80878 -218.99203,-2.47088 v -64.1048 c 0,-14.864 9.12996,-27.61253 22.0455,-32.95689 z"
         id="path4"
         style="display:none;stroke-width:0.556705" /><path
         id="lpe_path-effect4"
         style="stroke-width:0.556705"
         class="powerclip"
         d="M -0.6610169,-1.2033898 H 441.06779 V 440.52542 H -0.6610169 Z M 259.23747,360.35666 v -10e-6 c -12.91554,5.34436 -22.0455,18.09289 -22.0455,32.95689 v 64.1048 c -0.93276,11.27966 213.05828,2.80126 218.99203,2.47088 l -0.30953,-190.07357 c 0,0 -3.01517,-1.20389 -25.72872,-1.20389 H 329.2709 c -22.71354,0 -42.92192,14.36297 -50.43743,35.7961 z" /></clipPath></defs><!--! Font Awesome Free 6.4.2 by @fontawesome - https://fontawesome.com/license/free (Free License) Copyright 2023 Fonticons, Inc. Modified by User --><path
     d="M 66.014528,3.7966102 C 31.99661,3.7966102 4.3389831,31.454237 4.3389831,65.472155 V 373.84988 c 0,34.01792 27.6576269,61.67554 61.6755449,61.67554 H 374.39225 c 34.01792,0 61.67554,-27.65762 61.67554,-61.67554 V 65.472155 c 0,-34.017918 -27.65762,-61.6755448 -61.67554,-61.6755448 z M 189.36561,219.66102 h 46.25666 c 17.05715,0 30.83778,-13.78063 30.83778,-30.83778 0,-17.05714 -13.78063,-30.83777 -30.83778,-30.83777 h -46.25666 z m 46.25666,61.67554 h -46.25666 v 30.83777 c 0,17.05715 -13.78063,30.83778 -30.83777,30.83778 -17.05714,0 -30.83777,-13.78063 -30.83777,-30.83778 V 250.49879 134.85714 c 0,-21.29733 17.24988,-38.547213 38.54722,-38.547213 h 69.38498 c 51.07506,0 92.51332,41.438253 92.51332,92.513313 0,51.07506 -41.43826,92.51332 -92.51332,92.51332 z"
     id="path1"
     style="stroke-width:0.96368"
     clip-path="url(#clipPath4)" /><path
     d="m 321.76441,326.45889 -13.13689,37.54838 h 147.87816 l -13.13691,-37.54838 c -2.26497,-6.4426 -8.35526,-10.77124 -15.20055,-10.77124 h -91.20326 c -6.84529,0 -12.93556,4.32864 -15.20055,10.77124 z m -48.11829,39.96436 17.7172,-50.5846 c 6.79494,-19.37817 25.06581,-32.36408 45.60164,-32.36408 h 91.20326 c 20.53584,0 38.80669,12.98591 45.60165,32.36408 l 17.71718,50.5846 c 11.67723,4.83195 19.93183,16.3582 19.93183,29.79709 v 72.47943 24.15978 c 0,8.90894 -7.19759,16.10655 -16.10654,16.10655 h -16.10652 c -8.90893,0 -16.10655,-7.19761 -16.10655,-16.10655 V 468.69977 H 302.0339 v 24.15978 c 0,8.90894 -7.1976,16.10655 -16.10654,16.10655 h -16.10654 c -8.90891,0 -16.10654,-7.19761 -16.10654,-16.10655 v -24.15978 -72.47943 c 0,-13.43889 8.25461,-24.96514 19.93184,-29.79709 z m 44.49432,45.90361 a 16.106541,16.106541 0 1 0 -32.21308,0 16.106541,16.106541 0 1 0 32.21308,0 z m 144.95883,16.10655 a 16.106541,16.106541 0 1 0 0,-32.21307 16.106541,16.106541 0 1 0 0,32.21307 z"
     id="path1-0-2"
     style="stroke-width:0.50333" /></svg>
